<svg width="272" height="54" viewBox="0 0 272 54" fill="none" xmlns="http://www.w3.org/2000/svg">
<rect width="272" height="54" rx="5" fill="#E3EFF5"/>
<path d="M35.1609 32.16C34.3822 32.16 33.6569 32.0747 32.9849 31.904C32.3235 31.7227 31.7422 31.4667 31.2409 31.136C31.0382 31.008 30.8995 30.8587 30.8249 30.688C30.7609 30.5067 30.7449 30.336 30.7769 30.176C30.8195 30.0053 30.8995 29.8613 31.0169 29.744C31.1342 29.6267 31.2835 29.5573 31.4649 29.536C31.6462 29.5147 31.8435 29.568 32.0569 29.696C32.3342 29.856 32.6275 29.9893 32.9369 30.096C33.2462 30.2027 33.5715 30.2827 33.9129 30.336C34.2649 30.3893 34.6275 30.416 35.0009 30.416C35.5982 30.416 36.0835 30.352 36.4569 30.224C36.8409 30.096 37.1235 29.904 37.3049 29.648C37.4969 29.392 37.5929 29.0667 37.5929 28.672C37.5929 28.1387 37.4222 27.744 37.0809 27.488C36.7395 27.2213 36.2062 27.088 35.4809 27.088H33.4809C33.2035 27.088 32.9902 27.0187 32.8409 26.88C32.6915 26.7413 32.6169 26.5387 32.6169 26.272C32.6169 26.016 32.6915 25.8187 32.8409 25.68C32.9902 25.5413 33.2035 25.472 33.4809 25.472H35.2089C35.9129 25.472 36.4355 25.344 36.7769 25.088C37.1289 24.832 37.3049 24.4427 37.3049 23.92C37.3049 23.5893 37.2195 23.3013 37.0489 23.056C36.8889 22.8107 36.6382 22.624 36.2969 22.496C35.9662 22.3573 35.5395 22.288 35.0169 22.288C34.5582 22.288 34.0942 22.3467 33.6249 22.464C33.1662 22.5707 32.7449 22.7307 32.3609 22.944C32.1369 23.072 31.9342 23.1253 31.7529 23.104C31.5822 23.072 31.4382 22.9973 31.3209 22.88C31.2142 22.752 31.1449 22.6027 31.1129 22.432C31.0809 22.2613 31.1022 22.0907 31.1769 21.92C31.2515 21.7493 31.3849 21.6053 31.5769 21.488C32.0889 21.1787 32.6595 20.9493 33.2889 20.8C33.9289 20.64 34.5795 20.56 35.2409 20.56C36.1582 20.56 36.9155 20.6933 37.5129 20.96C38.1209 21.216 38.5742 21.5787 38.8729 22.048C39.1822 22.5067 39.3369 23.04 39.3369 23.648C39.3369 24.3307 39.1342 24.9067 38.7289 25.376C38.3342 25.8453 37.8009 26.16 37.1289 26.32V26.08C37.9075 26.1973 38.5155 26.496 38.9529 26.976C39.3902 27.456 39.6089 28.08 39.6089 28.848C39.6089 29.5093 39.4489 30.0907 39.1289 30.592C38.8089 31.0933 38.3182 31.4827 37.6569 31.76C37.0062 32.0267 36.1742 32.16 35.1609 32.16ZM44.1811 32.16C43.6158 32.16 43.1091 32.0533 42.6611 31.84C42.2238 31.616 41.8771 31.3173 41.6211 30.944C41.3758 30.5707 41.2531 30.1493 41.2531 29.68C41.2531 29.104 41.4025 28.6507 41.7011 28.32C41.9998 27.9787 42.4851 27.7333 43.1571 27.584C43.8291 27.4347 44.7305 27.36 45.8611 27.36H46.6611V28.512H45.8771C45.2158 28.512 44.6878 28.544 44.2931 28.608C43.8985 28.672 43.6158 28.784 43.4451 28.944C43.2851 29.0933 43.2051 29.3067 43.2051 29.584C43.2051 29.936 43.3278 30.224 43.5731 30.448C43.8185 30.672 44.1598 30.784 44.5971 30.784C44.9491 30.784 45.2585 30.704 45.5251 30.544C45.8025 30.3733 46.0211 30.144 46.1811 29.856C46.3411 29.568 46.4211 29.2373 46.4211 28.864V27.024C46.4211 26.4907 46.3038 26.1067 46.0691 25.872C45.8345 25.6373 45.4398 25.52 44.8851 25.52C44.5758 25.52 44.2398 25.5573 43.8771 25.632C43.5251 25.7067 43.1518 25.8347 42.7571 26.016C42.5545 26.112 42.3731 26.1387 42.2131 26.096C42.0638 26.0533 41.9465 25.968 41.8611 25.84C41.7758 25.7013 41.7331 25.552 41.7331 25.392C41.7331 25.232 41.7758 25.0773 41.8611 24.928C41.9465 24.768 42.0905 24.6507 42.2931 24.576C42.7838 24.3733 43.2531 24.2293 43.7011 24.144C44.1598 24.0587 44.5758 24.016 44.9491 24.016C45.7171 24.016 46.3465 24.1333 46.8371 24.368C47.3385 24.6027 47.7118 24.96 47.9571 25.44C48.2025 25.9093 48.3251 26.5173 48.3251 27.264V31.104C48.3251 31.4347 48.2451 31.6907 48.0851 31.872C47.9251 32.0427 47.6958 32.128 47.3971 32.128C47.0985 32.128 46.8638 32.0427 46.6931 31.872C46.5331 31.6907 46.4531 31.4347 46.4531 31.104V30.336H46.5811C46.5065 30.7093 46.3571 31.0347 46.1331 31.312C45.9198 31.5787 45.6478 31.7867 45.3171 31.936C44.9865 32.0853 44.6078 32.16 44.1811 32.16ZM51.5659 32.128C51.2459 32.128 50.9952 32.0427 50.8139 31.872C50.6432 31.6907 50.5579 31.4347 50.5579 31.104V25.088C50.5579 24.7573 50.6432 24.5067 50.8139 24.336C50.9952 24.1547 51.2459 24.064 51.5659 24.064C51.8859 24.064 52.1312 24.1547 52.3019 24.336C52.4725 24.5067 52.5579 24.7573 52.5579 25.088V27.216H53.6939L55.6939 24.528C55.8432 24.3253 56.0139 24.1973 56.2059 24.144C56.3979 24.08 56.5792 24.0747 56.7499 24.128C56.9312 24.1813 57.0752 24.2773 57.1819 24.416C57.2992 24.5547 57.3579 24.72 57.3579 24.912C57.3685 25.0933 57.2992 25.2853 57.1499 25.488L55.2459 28.096L54.8139 27.456C55.1019 27.488 55.3579 27.568 55.5819 27.696C55.8165 27.824 56.0299 28.0053 56.2219 28.24C56.4245 28.464 56.6219 28.7467 56.8139 29.088L57.7579 30.768C57.8859 30.992 57.9285 31.2 57.8859 31.392C57.8539 31.5733 57.7632 31.728 57.6139 31.856C57.4752 31.984 57.3099 32.064 57.1179 32.096C56.9259 32.128 56.7339 32.1013 56.5419 32.016C56.3605 31.9413 56.2059 31.792 56.0779 31.568L55.0059 29.696C54.8672 29.4507 54.7285 29.264 54.5899 29.136C54.4619 28.9973 54.3125 28.9013 54.1419 28.848C53.9819 28.7947 53.7845 28.768 53.5499 28.768H52.5579V31.104C52.5579 31.4347 52.4725 31.6907 52.3019 31.872C52.1312 32.0427 51.8859 32.128 51.5659 32.128ZM62.0874 32.16C61.522 32.16 61.0154 32.0533 60.5674 31.84C60.13 31.616 59.7834 31.3173 59.5274 30.944C59.282 30.5707 59.1594 30.1493 59.1594 29.68C59.1594 29.104 59.3087 28.6507 59.6074 28.32C59.906 27.9787 60.3914 27.7333 61.0634 27.584C61.7354 27.4347 62.6367 27.36 63.7674 27.36H64.5674V28.512H63.7834C63.122 28.512 62.594 28.544 62.1994 28.608C61.8047 28.672 61.522 28.784 61.3514 28.944C61.1914 29.0933 61.1114 29.3067 61.1114 29.584C61.1114 29.936 61.234 30.224 61.4794 30.448C61.7247 30.672 62.066 30.784 62.5034 30.784C62.8554 30.784 63.1647 30.704 63.4314 30.544C63.7087 30.3733 63.9274 30.144 64.0874 29.856C64.2474 29.568 64.3274 29.2373 64.3274 28.864V27.024C64.3274 26.4907 64.21 26.1067 63.9754 25.872C63.7407 25.6373 63.346 25.52 62.7914 25.52C62.482 25.52 62.146 25.5573 61.7834 25.632C61.4314 25.7067 61.058 25.8347 60.6634 26.016C60.4607 26.112 60.2794 26.1387 60.1194 26.096C59.97 26.0533 59.8527 25.968 59.7674 25.84C59.682 25.7013 59.6394 25.552 59.6394 25.392C59.6394 25.232 59.682 25.0773 59.7674 24.928C59.8527 24.768 59.9967 24.6507 60.1994 24.576C60.69 24.3733 61.1594 24.2293 61.6074 24.144C62.066 24.0587 62.482 24.016 62.8554 24.016C63.6234 24.016 64.2527 24.1333 64.7434 24.368C65.2447 24.6027 65.618 24.96 65.8634 25.44C66.1087 25.9093 66.2314 26.5173 66.2314 27.264V31.104C66.2314 31.4347 66.1514 31.6907 65.9914 31.872C65.8314 32.0427 65.602 32.128 65.3034 32.128C65.0047 32.128 64.77 32.0427 64.5994 31.872C64.4394 31.6907 64.3594 31.4347 64.3594 31.104V30.336H64.4874C64.4127 30.7093 64.2634 31.0347 64.0394 31.312C63.826 31.5787 63.554 31.7867 63.2234 31.936C62.8927 32.0853 62.514 32.16 62.0874 32.16ZM71.3601 32.16C70.8161 32.16 70.2881 32.1067 69.7761 32C69.2641 31.904 68.8055 31.76 68.4001 31.568C68.2081 31.472 68.0695 31.3547 67.9841 31.216C67.8988 31.0667 67.8561 30.9173 67.8561 30.768C67.8668 30.608 67.9148 30.4693 68.0001 30.352C68.0961 30.2347 68.2241 30.16 68.3841 30.128C68.5441 30.096 68.7308 30.1333 68.9441 30.24C69.2855 30.4 69.6641 30.5227 70.0801 30.608C70.5068 30.6827 70.9175 30.72 71.3121 30.72C71.9948 30.72 72.4801 30.64 72.7681 30.48C73.0561 30.3093 73.2001 30.0533 73.2001 29.712C73.2001 29.4027 73.0881 29.168 72.8641 29.008C72.6401 28.848 72.3201 28.768 71.9041 28.768H70.4801C70.2348 28.768 70.0428 28.704 69.9041 28.576C69.7655 28.4373 69.6961 28.256 69.6961 28.032C69.6961 27.808 69.7655 27.6373 69.9041 27.52C70.0428 27.392 70.2348 27.328 70.4801 27.328H71.7121C72.0855 27.328 72.3788 27.2533 72.5921 27.104C72.8055 26.944 72.9121 26.72 72.9121 26.432C72.9121 26.1227 72.7841 25.8827 72.5281 25.712C72.2828 25.5413 71.8348 25.456 71.1841 25.456C70.8108 25.456 70.4481 25.4933 70.0961 25.568C69.7441 25.632 69.3975 25.7387 69.0561 25.888C68.8001 25.9947 68.5815 26.016 68.4001 25.952C68.2295 25.8773 68.1068 25.7547 68.0321 25.584C67.9575 25.4133 67.9521 25.2373 68.0161 25.056C68.0801 24.8747 68.2241 24.7307 68.4481 24.624C68.9175 24.4107 69.4028 24.256 69.9041 24.16C70.4161 24.064 70.9548 24.016 71.5201 24.016C72.5655 24.016 73.3601 24.2133 73.9041 24.608C74.4588 24.992 74.7361 25.5307 74.7361 26.224C74.7361 26.7147 74.5708 27.1307 74.2401 27.472C73.9095 27.8027 73.4668 28.0053 72.9121 28.08V27.856C73.5735 27.8987 74.0908 28.0907 74.4641 28.432C74.8375 28.7733 75.0241 29.232 75.0241 29.808C75.0241 30.5227 74.7095 31.0933 74.0801 31.52C73.4508 31.9467 72.5441 32.16 71.3601 32.16ZM79.3686 32.16C78.8033 32.16 78.2966 32.0533 77.8486 31.84C77.4113 31.616 77.0646 31.3173 76.8086 30.944C76.5633 30.5707 76.4406 30.1493 76.4406 29.68C76.4406 29.104 76.59 28.6507 76.8886 28.32C77.1873 27.9787 77.6726 27.7333 78.3446 27.584C79.0166 27.4347 79.918 27.36 81.0486 27.36H81.8486V28.512H81.0646C80.4033 28.512 79.8753 28.544 79.4806 28.608C79.086 28.672 78.8033 28.784 78.6326 28.944C78.4726 29.0933 78.3926 29.3067 78.3926 29.584C78.3926 29.936 78.5153 30.224 78.7606 30.448C79.006 30.672 79.3473 30.784 79.7846 30.784C80.1366 30.784 80.446 30.704 80.7126 30.544C80.99 30.3733 81.2086 30.144 81.3686 29.856C81.5286 29.568 81.6086 29.2373 81.6086 28.864V27.024C81.6086 26.4907 81.4913 26.1067 81.2566 25.872C81.022 25.6373 80.6273 25.52 80.0726 25.52C79.7633 25.52 79.4273 25.5573 79.0646 25.632C78.7126 25.7067 78.3393 25.8347 77.9446 26.016C77.742 26.112 77.5606 26.1387 77.4006 26.096C77.2513 26.0533 77.134 25.968 77.0486 25.84C76.9633 25.7013 76.9206 25.552 76.9206 25.392C76.9206 25.232 76.9633 25.0773 77.0486 24.928C77.134 24.768 77.278 24.6507 77.4806 24.576C77.9713 24.3733 78.4406 24.2293 78.8886 24.144C79.3473 24.0587 79.7633 24.016 80.1366 24.016C80.9046 24.016 81.534 24.1333 82.0246 24.368C82.526 24.6027 82.8993 24.96 83.1446 25.44C83.39 25.9093 83.5126 26.5173 83.5126 27.264V31.104C83.5126 31.4347 83.4326 31.6907 83.2726 31.872C83.1126 32.0427 82.8833 32.128 82.5846 32.128C82.286 32.128 82.0513 32.0427 81.8806 31.872C81.7206 31.6907 81.6406 31.4347 81.6406 31.104V30.336H81.7686C81.694 30.7093 81.5446 31.0347 81.3206 31.312C81.1073 31.5787 80.8353 31.7867 80.5046 31.936C80.174 32.0853 79.7953 32.16 79.3686 32.16ZM88.4014 32.128C88.0814 32.128 87.8307 32.0427 87.6494 31.872C87.4787 31.6907 87.3934 31.4347 87.3934 31.104V25.744H85.4414C84.8654 25.744 84.5774 25.4827 84.5774 24.96C84.5774 24.7147 84.652 24.5227 84.8014 24.384C84.9614 24.2453 85.1747 24.176 85.4414 24.176H91.3454C91.9214 24.176 92.2094 24.4373 92.2094 24.96C92.2094 25.216 92.1347 25.4133 91.9854 25.552C91.836 25.68 91.6227 25.744 91.3454 25.744H89.3934V31.104C89.3934 31.4347 89.308 31.6907 89.1374 31.872C88.9774 32.0427 88.732 32.128 88.4014 32.128ZM94.2999 32C93.9799 32 93.7345 31.9147 93.5639 31.744C93.3932 31.5733 93.3079 31.328 93.3079 31.008V25.056C93.3079 24.7147 93.3932 24.464 93.5639 24.304C93.7452 24.1333 93.9959 24.048 94.3159 24.048C94.6359 24.048 94.8812 24.1333 95.0519 24.304C95.2225 24.464 95.3079 24.7147 95.3079 25.056V26.768H97.3719C98.4065 26.768 99.1852 26.9867 99.7079 27.424C100.241 27.8613 100.508 28.5013 100.508 29.344C100.508 29.8773 100.38 30.3467 100.124 30.752C99.8679 31.1467 99.5052 31.456 99.0359 31.68C98.5772 31.8933 98.0225 32 97.3719 32H94.2999ZM95.3079 30.688H97.0679C97.5692 30.688 97.9585 30.5813 98.2359 30.368C98.5132 30.144 98.6519 29.808 98.6519 29.36C98.6519 28.9227 98.5132 28.6027 98.2359 28.4C97.9585 28.1867 97.5692 28.08 97.0679 28.08H95.3079V30.688ZM110.079 32.16C109.269 32.16 108.565 31.9947 107.967 31.664C107.37 31.3333 106.906 30.864 106.575 30.256C106.245 29.6373 106.079 28.912 106.079 28.08C106.079 27.4507 106.17 26.8907 106.351 26.4C106.543 25.8987 106.815 25.472 107.167 25.12C107.519 24.7573 107.941 24.4853 108.431 24.304C108.922 24.112 109.471 24.016 110.079 24.016C110.89 24.016 111.594 24.1813 112.191 24.512C112.789 24.8427 113.253 25.312 113.583 25.92C113.914 26.528 114.079 27.248 114.079 28.08C114.079 28.7093 113.983 29.2747 113.791 29.776C113.61 30.2773 113.343 30.7093 112.991 31.072C112.639 31.424 112.218 31.696 111.727 31.888C111.237 32.0693 110.687 32.16 110.079 32.16ZM110.079 30.64C110.474 30.64 110.821 30.544 111.119 30.352C111.418 30.16 111.647 29.8773 111.807 29.504C111.978 29.12 112.063 28.6453 112.063 28.08C112.063 27.2267 111.882 26.592 111.519 26.176C111.157 25.7493 110.677 25.536 110.079 25.536C109.685 25.536 109.338 25.632 109.039 25.824C108.741 26.0053 108.506 26.288 108.335 26.672C108.175 27.0453 108.095 27.5147 108.095 28.08C108.095 28.9227 108.277 29.5627 108.639 30C109.002 30.4267 109.482 30.64 110.079 30.64ZM119.597 32.16C118.765 32.16 118.04 31.9893 117.421 31.648C116.813 31.3067 116.344 30.8 116.013 30.128C115.682 29.4453 115.517 28.608 115.517 27.616V26.448C115.517 25.392 115.672 24.512 115.981 23.808C116.301 23.0933 116.77 22.5227 117.389 22.096C118.018 21.6587 118.792 21.328 119.709 21.104L121.789 20.592C122.066 20.5173 122.301 20.5333 122.493 20.64C122.685 20.736 122.808 20.9173 122.861 21.184C122.914 21.4507 122.872 21.68 122.733 21.872C122.594 22.0533 122.381 22.176 122.093 22.24L119.853 22.768C119.32 22.896 118.872 23.0987 118.509 23.376C118.146 23.6427 117.869 23.9787 117.677 24.384C117.496 24.7893 117.405 25.2587 117.405 25.792V26.656H117.133C117.24 26.1973 117.421 25.7867 117.677 25.424C117.944 25.0613 118.285 24.7787 118.701 24.576C119.117 24.3627 119.602 24.256 120.157 24.256C120.808 24.256 121.384 24.416 121.885 24.736C122.397 25.0453 122.797 25.488 123.085 26.064C123.373 26.64 123.517 27.328 123.517 28.128C123.517 28.9493 123.352 29.664 123.021 30.272C122.701 30.8693 122.248 31.3333 121.661 31.664C121.074 31.9947 120.386 32.16 119.597 32.16ZM119.517 30.64C119.944 30.64 120.301 30.5493 120.589 30.368C120.888 30.176 121.112 29.8987 121.261 29.536C121.421 29.1733 121.501 28.7307 121.501 28.208C121.501 27.4293 121.325 26.832 120.973 26.416C120.632 25.9893 120.146 25.776 119.517 25.776C119.101 25.776 118.744 25.872 118.445 26.064C118.146 26.2453 117.917 26.512 117.757 26.864C117.608 27.216 117.533 27.6373 117.533 28.128C117.533 28.9493 117.704 29.5733 118.045 30C118.397 30.4267 118.888 30.64 119.517 30.64ZM126.378 35.008C126.058 35.008 125.813 34.9227 125.642 34.752C125.472 34.5813 125.386 34.3307 125.386 34V25.056C125.386 24.7253 125.472 24.4747 125.642 24.304C125.813 24.1333 126.053 24.048 126.362 24.048C126.682 24.048 126.928 24.1333 127.098 24.304C127.269 24.4747 127.354 24.7253 127.354 25.056V26.304L127.178 25.824C127.338 25.28 127.664 24.8427 128.154 24.512C128.656 24.1813 129.237 24.016 129.898 24.016C130.581 24.016 131.178 24.1813 131.69 24.512C132.213 24.8427 132.618 25.312 132.906 25.92C133.194 26.5173 133.338 27.2373 133.338 28.08C133.338 28.912 133.194 29.6373 132.906 30.256C132.618 30.864 132.218 31.3333 131.706 31.664C131.194 31.9947 130.592 32.16 129.898 32.16C129.248 32.16 128.677 32 128.186 31.68C127.696 31.3493 127.365 30.9227 127.194 30.4H127.386V34C127.386 34.3307 127.296 34.5813 127.114 34.752C126.944 34.9227 126.698 35.008 126.378 35.008ZM129.338 30.64C129.733 30.64 130.08 30.544 130.378 30.352C130.677 30.16 130.906 29.8773 131.066 29.504C131.237 29.12 131.322 28.6453 131.322 28.08C131.322 27.2267 131.141 26.592 130.778 26.176C130.416 25.7493 129.936 25.536 129.338 25.536C128.944 25.536 128.597 25.632 128.298 25.824C128 26.0053 127.765 26.288 127.594 26.672C127.434 27.0453 127.354 27.5147 127.354 28.08C127.354 28.9227 127.536 29.5627 127.898 30C128.261 30.4267 128.741 30.64 129.338 30.64ZM137.791 32.16C137.225 32.16 136.719 32.0533 136.271 31.84C135.833 31.616 135.487 31.3173 135.231 30.944C134.985 30.5707 134.863 30.1493 134.863 29.68C134.863 29.104 135.012 28.6507 135.311 28.32C135.609 27.9787 136.095 27.7333 136.767 27.584C137.439 27.4347 138.34 27.36 139.471 27.36H140.271V28.512H139.487C138.825 28.512 138.297 28.544 137.903 28.608C137.508 28.672 137.225 28.784 137.055 28.944C136.895 29.0933 136.815 29.3067 136.815 29.584C136.815 29.936 136.937 30.224 137.183 30.448C137.428 30.672 137.769 30.784 138.207 30.784C138.559 30.784 138.868 30.704 139.135 30.544C139.412 30.3733 139.631 30.144 139.791 29.856C139.951 29.568 140.031 29.2373 140.031 28.864V27.024C140.031 26.4907 139.913 26.1067 139.679 25.872C139.444 25.6373 139.049 25.52 138.495 25.52C138.185 25.52 137.849 25.5573 137.487 25.632C137.135 25.7067 136.761 25.8347 136.367 26.016C136.164 26.112 135.983 26.1387 135.823 26.096C135.673 26.0533 135.556 25.968 135.471 25.84C135.385 25.7013 135.343 25.552 135.343 25.392C135.343 25.232 135.385 25.0773 135.471 24.928C135.556 24.768 135.7 24.6507 135.903 24.576C136.393 24.3733 136.863 24.2293 137.311 24.144C137.769 24.0587 138.185 24.016 138.559 24.016C139.327 24.016 139.956 24.1333 140.447 24.368C140.948 24.6027 141.321 24.96 141.567 25.44C141.812 25.9093 141.935 26.5173 141.935 27.264V31.104C141.935 31.4347 141.855 31.6907 141.695 31.872C141.535 32.0427 141.305 32.128 141.007 32.128C140.708 32.128 140.473 32.0427 140.303 31.872C140.143 31.6907 140.063 31.4347 140.063 31.104V30.336H140.191C140.116 30.7093 139.967 31.0347 139.743 31.312C139.529 31.5787 139.257 31.7867 138.927 31.936C138.596 32.0853 138.217 32.16 137.791 32.16ZM146.823 32.128C146.503 32.128 146.253 32.0427 146.071 31.872C145.901 31.6907 145.815 31.4347 145.815 31.104V25.744H143.863C143.287 25.744 142.999 25.4827 142.999 24.96C142.999 24.7147 143.074 24.5227 143.223 24.384C143.383 24.2453 143.597 24.176 143.863 24.176H149.767C150.343 24.176 150.631 24.4373 150.631 24.96C150.631 25.216 150.557 25.4133 150.407 25.552C150.258 25.68 150.045 25.744 149.767 25.744H147.815V31.104C147.815 31.4347 147.73 31.6907 147.559 31.872C147.399 32.0427 147.154 32.128 146.823 32.128ZM152.738 32.128C152.418 32.128 152.167 32.0427 151.986 31.872C151.815 31.6907 151.73 31.4347 151.73 31.104V25.056C151.73 24.7147 151.815 24.464 151.986 24.304C152.167 24.1333 152.418 24.048 152.738 24.048C153.058 24.048 153.303 24.1333 153.474 24.304C153.644 24.464 153.73 24.7147 153.73 25.056V27.2H157.186V25.056C157.186 24.7147 157.271 24.464 157.442 24.304C157.612 24.1333 157.858 24.048 158.178 24.048C158.498 24.048 158.743 24.1333 158.914 24.304C159.095 24.464 159.186 24.7147 159.186 25.056V31.104C159.186 31.4347 159.095 31.6907 158.914 31.872C158.743 32.0427 158.498 32.128 158.178 32.128C157.858 32.128 157.612 32.0427 157.442 31.872C157.271 31.6907 157.186 31.4347 157.186 31.104V28.768H153.73V31.104C153.73 31.4347 153.644 31.6907 153.474 31.872C153.314 32.0427 153.068 32.128 152.738 32.128ZM162.456 32C162.136 32 161.891 31.9147 161.72 31.744C161.549 31.5733 161.464 31.328 161.464 31.008V25.056C161.464 24.7147 161.549 24.464 161.72 24.304C161.901 24.1333 162.152 24.048 162.472 24.048C162.792 24.048 163.037 24.1333 163.208 24.304C163.379 24.464 163.464 24.7147 163.464 25.056V26.768H165.528C166.563 26.768 167.341 26.9867 167.864 27.424C168.397 27.8613 168.664 28.5013 168.664 29.344C168.664 29.8773 168.536 30.3467 168.28 30.752C168.024 31.1467 167.661 31.456 167.192 31.68C166.733 31.8933 166.179 32 165.528 32H162.456ZM163.464 30.688H165.224C165.725 30.688 166.115 30.5813 166.392 30.368C166.669 30.144 166.808 29.808 166.808 29.36C166.808 28.9227 166.669 28.6027 166.392 28.4C166.115 28.1867 165.725 28.08 165.224 28.08H163.464V30.688ZM170.6 32.128C170.28 32.128 170.035 32.0427 169.864 31.872C169.693 31.6907 169.608 31.4347 169.608 31.104V25.056C169.608 24.7147 169.693 24.464 169.864 24.304C170.035 24.1333 170.28 24.048 170.6 24.048C170.92 24.048 171.165 24.1333 171.336 24.304C171.517 24.464 171.608 24.7147 171.608 25.056V31.104C171.608 31.7867 171.272 32.128 170.6 32.128ZM174.814 32.128C174.611 32.128 174.441 32.0907 174.302 32.016C174.163 31.9413 174.057 31.824 173.982 31.664C173.918 31.504 173.886 31.3013 173.886 31.056V25.008C173.886 24.6987 173.966 24.464 174.126 24.304C174.286 24.1333 174.51 24.048 174.798 24.048C175.086 24.048 175.305 24.1333 175.454 24.304C175.614 24.464 175.694 24.6987 175.694 25.008V29.952H175.278L179.23 24.688C179.347 24.5387 179.491 24.3947 179.662 24.256C179.833 24.1173 180.067 24.048 180.366 24.048C180.569 24.048 180.734 24.0853 180.862 24.16C181.001 24.2347 181.102 24.352 181.166 24.512C181.241 24.6613 181.278 24.8587 181.278 25.104V31.168C181.278 31.4667 181.198 31.7013 181.038 31.872C180.889 32.0427 180.67 32.128 180.382 32.128C180.083 32.128 179.854 32.0427 179.694 31.872C179.545 31.7013 179.47 31.4667 179.47 31.168V26.208H179.902L175.934 31.488C175.827 31.6373 175.689 31.7813 175.518 31.92C175.358 32.0587 175.123 32.128 174.814 32.128ZM177.582 23.184C176.921 23.184 176.345 23.0347 175.854 22.736C175.363 22.4267 175.017 21.9947 174.814 21.44C174.739 21.2373 174.729 21.072 174.782 20.944C174.846 20.8053 174.958 20.7093 175.118 20.656C175.278 20.6027 175.417 20.608 175.534 20.672C175.662 20.736 175.774 20.864 175.87 21.056C176.051 21.3973 176.281 21.6533 176.558 21.824C176.846 21.9947 177.187 22.08 177.582 22.08C177.987 22.08 178.329 21.9947 178.606 21.824C178.894 21.6533 179.123 21.3973 179.294 21.056C179.39 20.864 179.497 20.736 179.614 20.672C179.742 20.608 179.886 20.6027 180.046 20.656C180.206 20.7093 180.313 20.8053 180.366 20.944C180.43 21.072 180.414 21.2373 180.318 21.44C180.051 21.9947 179.694 22.4267 179.246 22.736C178.798 23.0347 178.243 23.184 177.582 23.184ZM190.782 32.16C190.238 32.16 189.71 32.1067 189.198 32C188.686 31.904 188.227 31.76 187.822 31.568C187.63 31.472 187.491 31.3547 187.406 31.216C187.321 31.0667 187.278 30.9173 187.278 30.768C187.289 30.608 187.337 30.4693 187.422 30.352C187.518 30.2347 187.646 30.16 187.806 30.128C187.966 30.096 188.153 30.1333 188.366 30.24C188.707 30.4 189.086 30.5227 189.502 30.608C189.929 30.6827 190.339 30.72 190.734 30.72C191.417 30.72 191.902 30.64 192.19 30.48C192.478 30.3093 192.622 30.0533 192.622 29.712C192.622 29.4027 192.51 29.168 192.286 29.008C192.062 28.848 191.742 28.768 191.326 28.768H189.902C189.657 28.768 189.465 28.704 189.326 28.576C189.187 28.4373 189.118 28.256 189.118 28.032C189.118 27.808 189.187 27.6373 189.326 27.52C189.465 27.392 189.657 27.328 189.902 27.328H191.134C191.507 27.328 191.801 27.2533 192.014 27.104C192.227 26.944 192.334 26.72 192.334 26.432C192.334 26.1227 192.206 25.8827 191.95 25.712C191.705 25.5413 191.257 25.456 190.606 25.456C190.233 25.456 189.87 25.4933 189.518 25.568C189.166 25.632 188.819 25.7387 188.478 25.888C188.222 25.9947 188.003 26.016 187.822 25.952C187.651 25.8773 187.529 25.7547 187.454 25.584C187.379 25.4133 187.374 25.2373 187.438 25.056C187.502 24.8747 187.646 24.7307 187.87 24.624C188.339 24.4107 188.825 24.256 189.326 24.16C189.838 24.064 190.377 24.016 190.942 24.016C191.987 24.016 192.782 24.2133 193.326 24.608C193.881 24.992 194.158 25.5307 194.158 26.224C194.158 26.7147 193.993 27.1307 193.662 27.472C193.331 27.8027 192.889 28.0053 192.334 28.08V27.856C192.995 27.8987 193.513 28.0907 193.886 28.432C194.259 28.7733 194.446 29.232 194.446 29.808C194.446 30.5227 194.131 31.0933 193.502 31.52C192.873 31.9467 191.966 32.16 190.782 32.16ZM197.191 32C196.871 32 196.625 31.9147 196.455 31.744C196.284 31.5733 196.199 31.328 196.199 31.008V25.168C196.199 24.848 196.284 24.6027 196.455 24.432C196.625 24.2613 196.871 24.176 197.191 24.176H200.423C201.095 24.176 201.639 24.256 202.055 24.416C202.481 24.576 202.791 24.8107 202.983 25.12C203.175 25.4187 203.271 25.7867 203.271 26.224C203.271 26.7147 203.1 27.1307 202.759 27.472C202.428 27.8027 201.985 28.0053 201.431 28.08V27.856C202.124 27.8987 202.647 28.096 202.999 28.448C203.361 28.8 203.543 29.2533 203.543 29.808C203.543 30.48 203.287 31.0133 202.775 31.408C202.263 31.8027 201.521 32 200.551 32H197.191ZM198.055 30.768H200.375C200.812 30.768 201.143 30.6773 201.367 30.496C201.601 30.3147 201.719 30.048 201.719 29.696C201.719 29.344 201.601 29.0773 201.367 28.896C201.143 28.7147 200.812 28.624 200.375 28.624H198.055V30.768ZM198.055 27.392H200.231C200.615 27.392 200.913 27.3067 201.127 27.136C201.34 26.9547 201.447 26.704 201.447 26.384C201.447 26.064 201.34 25.824 201.127 25.664C200.913 25.4933 200.615 25.408 200.231 25.408H198.055V27.392ZM208.876 32.16C208.066 32.16 207.362 31.9947 206.764 31.664C206.167 31.3333 205.703 30.864 205.372 30.256C205.042 29.6373 204.876 28.912 204.876 28.08C204.876 27.4507 204.967 26.8907 205.148 26.4C205.34 25.8987 205.612 25.472 205.964 25.12C206.316 24.7573 206.738 24.4853 207.228 24.304C207.719 24.112 208.268 24.016 208.876 24.016C209.687 24.016 210.391 24.1813 210.988 24.512C211.586 24.8427 212.05 25.312 212.38 25.92C212.711 26.528 212.876 27.248 212.876 28.08C212.876 28.7093 212.78 29.2747 212.588 29.776C212.407 30.2773 212.14 30.7093 211.788 31.072C211.436 31.424 211.015 31.696 210.524 31.888C210.034 32.0693 209.484 32.16 208.876 32.16ZM208.876 30.64C209.271 30.64 209.618 30.544 209.916 30.352C210.215 30.16 210.444 29.8773 210.604 29.504C210.775 29.12 210.86 28.6453 210.86 28.08C210.86 27.2267 210.679 26.592 210.316 26.176C209.954 25.7493 209.474 25.536 208.876 25.536C208.482 25.536 208.135 25.632 207.836 25.824C207.538 26.0053 207.303 26.288 207.132 26.672C206.972 27.0453 206.892 27.5147 206.892 28.08C206.892 28.9227 207.074 29.5627 207.436 30C207.799 30.4267 208.279 30.64 208.876 30.64ZM215.738 32.128C215.418 32.128 215.167 32.0427 214.986 31.872C214.815 31.6907 214.73 31.4347 214.73 31.104V25.056C214.73 24.7147 214.815 24.464 214.986 24.304C215.167 24.1333 215.418 24.048 215.738 24.048C216.058 24.048 216.303 24.1333 216.474 24.304C216.644 24.464 216.73 24.7147 216.73 25.056V27.2H220.186V25.056C220.186 24.7147 220.271 24.464 220.442 24.304C220.612 24.1333 220.858 24.048 221.178 24.048C221.498 24.048 221.743 24.1333 221.914 24.304C222.095 24.464 222.186 24.7147 222.186 25.056V31.104C222.186 31.4347 222.095 31.6907 221.914 31.872C221.743 32.0427 221.498 32.128 221.178 32.128C220.858 32.128 220.612 32.0427 220.442 31.872C220.271 31.6907 220.186 31.4347 220.186 31.104V28.768H216.73V31.104C216.73 31.4347 216.644 31.6907 216.474 31.872C216.314 32.0427 216.068 32.128 215.738 32.128ZM228.048 32.16C227.237 32.16 226.533 31.9947 225.936 31.664C225.339 31.3333 224.875 30.864 224.544 30.256C224.213 29.6373 224.048 28.912 224.048 28.08C224.048 27.4507 224.139 26.8907 224.32 26.4C224.512 25.8987 224.784 25.472 225.136 25.12C225.488 24.7573 225.909 24.4853 226.4 24.304C226.891 24.112 227.44 24.016 228.048 24.016C228.859 24.016 229.563 24.1813 230.16 24.512C230.757 24.8427 231.221 25.312 231.552 25.92C231.883 26.528 232.048 27.248 232.048 28.08C232.048 28.7093 231.952 29.2747 231.76 29.776C231.579 30.2773 231.312 30.7093 230.96 31.072C230.608 31.424 230.187 31.696 229.696 31.888C229.205 32.0693 228.656 32.16 228.048 32.16ZM228.048 30.64C228.443 30.64 228.789 30.544 229.088 30.352C229.387 30.16 229.616 29.8773 229.776 29.504C229.947 29.12 230.032 28.6453 230.032 28.08C230.032 27.2267 229.851 26.592 229.488 26.176C229.125 25.7493 228.645 25.536 228.048 25.536C227.653 25.536 227.307 25.632 227.008 25.824C226.709 26.0053 226.475 26.288 226.304 26.672C226.144 27.0453 226.064 27.5147 226.064 28.08C226.064 28.9227 226.245 29.5627 226.608 30C226.971 30.4267 227.451 30.64 228.048 30.64ZM234.91 32.128C234.59 32.128 234.339 32.0427 234.158 31.872C233.987 31.6907 233.902 31.4347 233.902 31.104V25.088C233.902 24.7573 233.987 24.5067 234.158 24.336C234.339 24.1547 234.59 24.064 234.91 24.064C235.23 24.064 235.475 24.1547 235.646 24.336C235.816 24.5067 235.902 24.7573 235.902 25.088V27.216H237.038L239.038 24.528C239.187 24.3253 239.358 24.1973 239.55 24.144C239.742 24.08 239.923 24.0747 240.094 24.128C240.275 24.1813 240.419 24.2773 240.526 24.416C240.643 24.5547 240.702 24.72 240.702 24.912C240.712 25.0933 240.643 25.2853 240.494 25.488L238.59 28.096L238.158 27.456C238.446 27.488 238.702 27.568 238.926 27.696C239.16 27.824 239.374 28.0053 239.566 28.24C239.768 28.464 239.966 28.7467 240.158 29.088L241.102 30.768C241.23 30.992 241.272 31.2 241.23 31.392C241.198 31.5733 241.107 31.728 240.958 31.856C240.819 31.984 240.654 32.064 240.462 32.096C240.27 32.128 240.078 32.1013 239.886 32.016C239.704 31.9413 239.55 31.792 239.422 31.568L238.35 29.696C238.211 29.4507 238.072 29.264 237.934 29.136C237.806 28.9973 237.656 28.9013 237.486 28.848C237.326 28.7947 237.128 28.768 236.894 28.768H235.902V31.104C235.902 31.4347 235.816 31.6907 235.646 31.872C235.475 32.0427 235.23 32.128 234.91 32.128Z" fill="#4F4F4F"/>
</svg>
