<svg width="196" height="46" viewBox="0 0 196 46" fill="none" xmlns="http://www.w3.org/2000/svg">
<rect width="196" height="46" rx="5" fill="#E3EFF5"/>
<path d="M43.1666 28.128C42.836 28.128 42.58 28.0373 42.3986 27.856C42.228 27.664 42.1426 27.4027 42.1426 27.072V18.432H38.1106V20.672C38.1106 21.6427 38.0466 22.5067 37.9186 23.264C37.7906 24.0213 37.604 24.6933 37.3586 25.28C37.124 25.8667 36.8253 26.3787 36.4626 26.816C36.1106 27.2533 35.7053 27.632 35.2466 27.952C35.012 28.1227 34.772 28.1813 34.5266 28.128C34.2813 28.0853 34.068 27.9467 33.8866 27.712C33.716 27.4667 33.6573 27.2267 33.7106 26.992C33.7746 26.7573 33.9293 26.5547 34.1746 26.384C34.516 26.1493 34.8146 25.8613 35.0706 25.52C35.3266 25.1787 35.54 24.7627 35.7106 24.272C35.8813 23.7813 36.0093 23.2 36.0946 22.528C36.18 21.8453 36.2226 21.0507 36.2226 20.144V17.808C36.2226 17.456 36.3133 17.1893 36.4946 17.008C36.6866 16.816 36.9586 16.72 37.3106 16.72H43.1026C43.4546 16.72 43.7213 16.816 43.9026 17.008C44.0946 17.1893 44.1906 17.456 44.1906 17.808V27.072C44.1906 27.4027 44.1 27.664 43.9186 27.856C43.748 28.0373 43.4973 28.128 43.1666 28.128ZM47.4859 28.128C47.2832 28.128 47.1125 28.0907 46.9739 28.016C46.8352 27.9413 46.7285 27.824 46.6539 27.664C46.5899 27.504 46.5579 27.3013 46.5579 27.056V21.008C46.5579 20.6987 46.6379 20.464 46.7979 20.304C46.9579 20.1333 47.1819 20.048 47.4699 20.048C47.7579 20.048 47.9765 20.1333 48.1259 20.304C48.2859 20.464 48.3659 20.6987 48.3659 21.008V25.952H47.9499L51.9019 20.688C52.0192 20.5387 52.1632 20.3947 52.3339 20.256C52.5045 20.1173 52.7392 20.048 53.0379 20.048C53.2405 20.048 53.4059 20.0853 53.5339 20.16C53.6725 20.2347 53.7739 20.352 53.8379 20.512C53.9125 20.6613 53.9499 20.8587 53.9499 21.104V27.168C53.9499 27.4667 53.8699 27.7013 53.7099 27.872C53.5605 28.0427 53.3419 28.128 53.0539 28.128C52.7552 28.128 52.5259 28.0427 52.3659 27.872C52.2165 27.7013 52.1419 27.4667 52.1419 27.168V22.208H52.5739L48.6059 27.488C48.4992 27.6373 48.3605 27.7813 48.1899 27.92C48.0299 28.0587 47.7952 28.128 47.4859 28.128ZM62.1501 28.128C61.8301 28.128 61.5848 28.0373 61.4141 27.856C61.2435 27.664 61.1581 27.3973 61.1581 27.056V25.168C60.8701 25.3067 60.5715 25.4133 60.2621 25.488C59.9635 25.552 59.6541 25.584 59.3341 25.584C58.1715 25.584 57.3075 25.3067 56.7421 24.752C56.1768 24.1867 55.8941 23.3387 55.8941 22.208V21.056C55.8941 20.7253 55.9795 20.4747 56.1501 20.304C56.3208 20.1333 56.5661 20.048 56.8861 20.048C57.2061 20.048 57.4515 20.1333 57.6221 20.304C57.8035 20.4747 57.8941 20.7253 57.8941 21.056V22.032C57.8941 22.7147 58.0328 23.2107 58.3101 23.52C58.5875 23.8187 59.0461 23.968 59.6861 23.968C59.9741 23.968 60.2355 23.936 60.4701 23.872C60.7048 23.808 60.9235 23.7067 61.1261 23.568V21.104C61.1261 20.4 61.4621 20.048 62.1341 20.048C62.4648 20.048 62.7101 20.1387 62.8701 20.32C63.0408 20.5013 63.1261 20.7627 63.1261 21.104V27.056C63.1261 27.3973 63.0461 27.664 62.8861 27.856C62.7261 28.0373 62.4808 28.128 62.1501 28.128ZM66.4096 28.128C66.0896 28.128 65.839 28.0427 65.6576 27.872C65.487 27.6907 65.4016 27.4347 65.4016 27.104V21.056C65.4016 20.7147 65.487 20.464 65.6576 20.304C65.839 20.1333 66.0896 20.048 66.4096 20.048C66.7296 20.048 66.975 20.1333 67.1456 20.304C67.3163 20.464 67.4016 20.7147 67.4016 21.056V23.2H70.8576V21.056C70.8576 20.7147 70.943 20.464 71.1136 20.304C71.2843 20.1333 71.5296 20.048 71.8496 20.048C72.1696 20.048 72.415 20.1333 72.5856 20.304C72.767 20.464 72.8576 20.7147 72.8576 21.056V27.104C72.8576 27.4347 72.767 27.6907 72.5856 27.872C72.415 28.0427 72.1696 28.128 71.8496 28.128C71.5296 28.128 71.2843 28.0427 71.1136 27.872C70.943 27.6907 70.8576 27.4347 70.8576 27.104V24.768H67.4016V27.104C67.4016 27.4347 67.3163 27.6907 67.1456 27.872C66.9856 28.0427 66.7403 28.128 66.4096 28.128ZM76.128 28C75.808 28 75.5627 27.9147 75.392 27.744C75.2213 27.5733 75.136 27.328 75.136 27.008V21.056C75.136 20.7147 75.2213 20.464 75.392 20.304C75.5733 20.1333 75.824 20.048 76.144 20.048C76.464 20.048 76.7093 20.1333 76.88 20.304C77.0507 20.464 77.136 20.7147 77.136 21.056V22.768H79.2C80.2347 22.768 81.0133 22.9867 81.536 23.424C82.0693 23.8613 82.336 24.5013 82.336 25.344C82.336 25.8773 82.208 26.3467 81.952 26.752C81.696 27.1467 81.3333 27.456 80.864 27.68C80.4053 27.8933 79.8507 28 79.2 28H76.128ZM77.136 26.688H78.896C79.3973 26.688 79.7867 26.5813 80.064 26.368C80.3413 26.144 80.48 25.808 80.48 25.36C80.48 24.9227 80.3413 24.6027 80.064 24.4C79.7867 24.1867 79.3973 24.08 78.896 24.08H77.136V26.688ZM84.272 28.128C83.952 28.128 83.7067 28.0427 83.536 27.872C83.3653 27.6907 83.28 27.4347 83.28 27.104V21.056C83.28 20.7147 83.3653 20.464 83.536 20.304C83.7067 20.1333 83.952 20.048 84.272 20.048C84.592 20.048 84.8373 20.1333 85.008 20.304C85.1893 20.464 85.28 20.7147 85.28 21.056V27.104C85.28 27.7867 84.944 28.128 84.272 28.128ZM88.4859 28.128C88.2832 28.128 88.1125 28.0907 87.9739 28.016C87.8352 27.9413 87.7285 27.824 87.6539 27.664C87.5899 27.504 87.5579 27.3013 87.5579 27.056V21.008C87.5579 20.6987 87.6379 20.464 87.7979 20.304C87.9579 20.1333 88.1819 20.048 88.4699 20.048C88.7579 20.048 88.9765 20.1333 89.1259 20.304C89.2859 20.464 89.3659 20.6987 89.3659 21.008V25.952H88.9499L92.9019 20.688C93.0192 20.5387 93.1632 20.3947 93.3339 20.256C93.5045 20.1173 93.7392 20.048 94.0379 20.048C94.2405 20.048 94.4059 20.0853 94.5339 20.16C94.6725 20.2347 94.7739 20.352 94.8379 20.512C94.9125 20.6613 94.9499 20.8587 94.9499 21.104V27.168C94.9499 27.4667 94.8699 27.7013 94.7099 27.872C94.5605 28.0427 94.3419 28.128 94.0539 28.128C93.7552 28.128 93.5259 28.0427 93.3659 27.872C93.2165 27.7013 93.1419 27.4667 93.1419 27.168V22.208H93.5739L89.6059 27.488C89.4992 27.6373 89.3605 27.7813 89.1899 27.92C89.0299 28.0587 88.7952 28.128 88.4859 28.128ZM91.2539 19.184C90.5925 19.184 90.0165 19.0347 89.5259 18.736C89.0352 18.4267 88.6885 17.9947 88.4859 17.44C88.4112 17.2373 88.4005 17.072 88.4539 16.944C88.5179 16.8053 88.6299 16.7093 88.7899 16.656C88.9499 16.6027 89.0885 16.608 89.2059 16.672C89.3339 16.736 89.4459 16.864 89.5419 17.056C89.7232 17.3973 89.9525 17.6533 90.2299 17.824C90.5179 17.9947 90.8592 18.08 91.2539 18.08C91.6592 18.08 92.0005 17.9947 92.2779 17.824C92.5659 17.6533 92.7952 17.3973 92.9659 17.056C93.0619 16.864 93.1685 16.736 93.2859 16.672C93.4139 16.608 93.5579 16.6027 93.7179 16.656C93.8779 16.7093 93.9845 16.8053 94.0379 16.944C94.1019 17.072 94.0859 17.2373 93.9899 17.44C93.7232 17.9947 93.3659 18.4267 92.9179 18.736C92.4699 19.0347 91.9152 19.184 91.2539 19.184ZM102.566 28.128C102.246 28.128 101.995 28.0427 101.814 27.872C101.643 27.6907 101.558 27.4347 101.558 27.104V21.088C101.558 20.7573 101.643 20.5067 101.814 20.336C101.995 20.1547 102.246 20.064 102.566 20.064C102.886 20.064 103.131 20.1547 103.302 20.336C103.473 20.5067 103.558 20.7573 103.558 21.088V23.216H104.694L106.694 20.528C106.843 20.3253 107.014 20.1973 107.206 20.144C107.398 20.08 107.579 20.0747 107.75 20.128C107.931 20.1813 108.075 20.2773 108.182 20.416C108.299 20.5547 108.358 20.72 108.358 20.912C108.369 21.0933 108.299 21.2853 108.15 21.488L106.246 24.096L105.814 23.456C106.102 23.488 106.358 23.568 106.582 23.696C106.817 23.824 107.03 24.0053 107.222 24.24C107.425 24.464 107.622 24.7467 107.814 25.088L108.758 26.768C108.886 26.992 108.929 27.2 108.886 27.392C108.854 27.5733 108.763 27.728 108.614 27.856C108.475 27.984 108.31 28.064 108.118 28.096C107.926 28.128 107.734 28.1013 107.542 28.016C107.361 27.9413 107.206 27.792 107.078 27.568L106.006 25.696C105.867 25.4507 105.729 25.264 105.59 25.136C105.462 24.9973 105.313 24.9013 105.142 24.848C104.982 24.7947 104.785 24.768 104.55 24.768H103.558V27.104C103.558 27.4347 103.473 27.6907 103.302 27.872C103.131 28.0427 102.886 28.128 102.566 28.128ZM113.087 28.16C112.522 28.16 112.015 28.0533 111.567 27.84C111.13 27.616 110.783 27.3173 110.527 26.944C110.282 26.5707 110.159 26.1493 110.159 25.68C110.159 25.104 110.309 24.6507 110.607 24.32C110.906 23.9787 111.391 23.7333 112.063 23.584C112.735 23.4347 113.637 23.36 114.767 23.36H115.567V24.512H114.783C114.122 24.512 113.594 24.544 113.199 24.608C112.805 24.672 112.522 24.784 112.351 24.944C112.191 25.0933 112.111 25.3067 112.111 25.584C112.111 25.936 112.234 26.224 112.479 26.448C112.725 26.672 113.066 26.784 113.503 26.784C113.855 26.784 114.165 26.704 114.431 26.544C114.709 26.3733 114.927 26.144 115.087 25.856C115.247 25.568 115.327 25.2373 115.327 24.864V23.024C115.327 22.4907 115.21 22.1067 114.975 21.872C114.741 21.6373 114.346 21.52 113.791 21.52C113.482 21.52 113.146 21.5573 112.783 21.632C112.431 21.7067 112.058 21.8347 111.663 22.016C111.461 22.112 111.279 22.1387 111.119 22.096C110.97 22.0533 110.853 21.968 110.767 21.84C110.682 21.7013 110.639 21.552 110.639 21.392C110.639 21.232 110.682 21.0773 110.767 20.928C110.853 20.768 110.997 20.6507 111.199 20.576C111.69 20.3733 112.159 20.2293 112.607 20.144C113.066 20.0587 113.482 20.016 113.855 20.016C114.623 20.016 115.253 20.1333 115.743 20.368C116.245 20.6027 116.618 20.96 116.863 21.44C117.109 21.9093 117.231 22.5173 117.231 23.264V27.104C117.231 27.4347 117.151 27.6907 116.991 27.872C116.831 28.0427 116.602 28.128 116.303 28.128C116.005 28.128 115.77 28.0427 115.599 27.872C115.439 27.6907 115.359 27.4347 115.359 27.104V26.336H115.487C115.413 26.7093 115.263 27.0347 115.039 27.312C114.826 27.5787 114.554 27.7867 114.223 27.936C113.893 28.0853 113.514 28.16 113.087 28.16ZM123.128 28.16C122.296 28.16 121.571 27.9893 120.952 27.648C120.344 27.3067 119.875 26.8 119.544 26.128C119.213 25.4453 119.048 24.608 119.048 23.616V22.448C119.048 21.392 119.203 20.512 119.512 19.808C119.832 19.0933 120.301 18.5227 120.92 18.096C121.549 17.6587 122.323 17.328 123.24 17.104L125.32 16.592C125.597 16.5173 125.832 16.5333 126.024 16.64C126.216 16.736 126.339 16.9173 126.392 17.184C126.445 17.4507 126.403 17.68 126.264 17.872C126.125 18.0533 125.912 18.176 125.624 18.24L123.384 18.768C122.851 18.896 122.403 19.0987 122.04 19.376C121.677 19.6427 121.4 19.9787 121.208 20.384C121.027 20.7893 120.936 21.2587 120.936 21.792V22.656H120.664C120.771 22.1973 120.952 21.7867 121.208 21.424C121.475 21.0613 121.816 20.7787 122.232 20.576C122.648 20.3627 123.133 20.256 123.688 20.256C124.339 20.256 124.915 20.416 125.416 20.736C125.928 21.0453 126.328 21.488 126.616 22.064C126.904 22.64 127.048 23.328 127.048 24.128C127.048 24.9493 126.883 25.664 126.552 26.272C126.232 26.8693 125.779 27.3333 125.192 27.664C124.605 27.9947 123.917 28.16 123.128 28.16ZM123.048 26.64C123.475 26.64 123.832 26.5493 124.12 26.368C124.419 26.176 124.643 25.8987 124.792 25.536C124.952 25.1733 125.032 24.7307 125.032 24.208C125.032 23.4293 124.856 22.832 124.504 22.416C124.163 21.9893 123.677 21.776 123.048 21.776C122.632 21.776 122.275 21.872 121.976 22.064C121.677 22.2453 121.448 22.512 121.288 22.864C121.139 23.216 121.064 23.6373 121.064 24.128C121.064 24.9493 121.235 25.5733 121.576 26C121.928 26.4267 122.419 26.64 123.048 26.64ZM129.83 28.128C129.627 28.128 129.456 28.0907 129.318 28.016C129.179 27.9413 129.072 27.824 128.998 27.664C128.934 27.504 128.902 27.3013 128.902 27.056V21.008C128.902 20.6987 128.982 20.464 129.142 20.304C129.302 20.1333 129.526 20.048 129.814 20.048C130.102 20.048 130.32 20.1333 130.47 20.304C130.63 20.464 130.71 20.6987 130.71 21.008V25.952H130.294L134.246 20.688C134.363 20.5387 134.507 20.3947 134.678 20.256C134.848 20.1173 135.083 20.048 135.382 20.048C135.584 20.048 135.75 20.0853 135.878 20.16C136.016 20.2347 136.118 20.352 136.182 20.512C136.256 20.6613 136.294 20.8587 136.294 21.104V27.168C136.294 27.4667 136.214 27.7013 136.054 27.872C135.904 28.0427 135.686 28.128 135.398 28.128C135.099 28.128 134.87 28.0427 134.71 27.872C134.56 27.7013 134.486 27.4667 134.486 27.168V22.208H134.918L130.95 27.488C130.843 27.6373 130.704 27.7813 130.534 27.92C130.374 28.0587 130.139 28.128 129.83 28.128ZM139.566 28.128C139.246 28.128 138.995 28.0427 138.814 27.872C138.643 27.6907 138.558 27.4347 138.558 27.104V21.056C138.558 20.7147 138.643 20.464 138.814 20.304C138.995 20.1333 139.246 20.048 139.566 20.048C139.886 20.048 140.131 20.1333 140.302 20.304C140.473 20.464 140.558 20.7147 140.558 21.056V23.2H144.014V21.056C144.014 20.7147 144.099 20.464 144.27 20.304C144.441 20.1333 144.686 20.048 145.006 20.048C145.326 20.048 145.571 20.1333 145.742 20.304C145.923 20.464 146.014 20.7147 146.014 21.056V27.104C146.014 27.4347 145.923 27.6907 145.742 27.872C145.571 28.0427 145.326 28.128 145.006 28.128C144.686 28.128 144.441 28.0427 144.27 27.872C144.099 27.6907 144.014 27.4347 144.014 27.104V24.768H140.558V27.104C140.558 27.4347 140.473 27.6907 140.302 27.872C140.142 28.0427 139.897 28.128 139.566 28.128ZM152.164 28.16C151.279 28.16 150.516 27.9947 149.876 27.664C149.236 27.3333 148.74 26.864 148.388 26.256C148.047 25.648 147.876 24.928 147.876 24.096C147.876 23.2853 148.042 22.576 148.372 21.968C148.714 21.36 149.178 20.8853 149.764 20.544C150.362 20.192 151.039 20.016 151.796 20.016C152.351 20.016 152.847 20.1067 153.284 20.288C153.732 20.4693 154.111 20.7307 154.42 21.072C154.74 21.4133 154.98 21.8293 155.14 22.32C155.311 22.8 155.396 23.344 155.396 23.952C155.396 24.144 155.327 24.2933 155.188 24.4C155.06 24.496 154.874 24.544 154.628 24.544H149.492V23.392H153.988L153.732 23.632C153.732 23.1413 153.658 22.7307 153.508 22.4C153.37 22.0693 153.162 21.8187 152.884 21.648C152.618 21.4667 152.282 21.376 151.876 21.376C151.428 21.376 151.044 21.4827 150.724 21.696C150.415 21.8987 150.175 22.192 150.004 22.576C149.844 22.9493 149.764 23.3973 149.764 23.92V24.032C149.764 24.9067 149.967 25.5627 150.372 26C150.788 26.4267 151.396 26.64 152.196 26.64C152.474 26.64 152.783 26.608 153.124 26.544C153.476 26.4693 153.807 26.3467 154.116 26.176C154.34 26.048 154.538 25.9947 154.708 26.016C154.879 26.0267 155.012 26.0853 155.108 26.192C155.215 26.2987 155.279 26.432 155.3 26.592C155.322 26.7413 155.29 26.896 155.204 27.056C155.13 27.216 154.996 27.3547 154.804 27.472C154.431 27.7067 153.999 27.8827 153.508 28C153.028 28.1067 152.58 28.16 152.164 28.16ZM159.839 28.128C159.519 28.128 159.268 28.0427 159.087 27.872C158.916 27.6907 158.831 27.4347 158.831 27.104V21.744H156.879C156.303 21.744 156.015 21.4827 156.015 20.96C156.015 20.7147 156.09 20.5227 156.239 20.384C156.399 20.2453 156.612 20.176 156.879 20.176H162.783C163.359 20.176 163.647 20.4373 163.647 20.96C163.647 21.216 163.572 21.4133 163.423 21.552C163.274 21.68 163.06 21.744 162.783 21.744H160.831V27.104C160.831 27.4347 160.746 27.6907 160.575 27.872C160.415 28.0427 160.17 28.128 159.839 28.128Z" fill="#00578A"/>
</svg>
