<svg width="32" height="32" viewBox="0 0 32 32" fill="none" xmlns="http://www.w3.org/2000/svg">
<path d="M16.7699 10.1978L18.8325 12.2514C18.8103 12.4294 18.7625 12.6747 18.6625 12.9818C18.3846 13.8354 17.6862 15.216 15.9241 16.9781C14.17 18.7322 12.8051 19.3756 11.9752 19.611C11.6555 19.7017 11.4056 19.7346 11.2317 19.7445L9.22541 17.7382C8.44437 16.9572 7.17804 16.9572 6.39699 17.7382L3.56856 20.5667C2.78751 21.3477 2.78751 22.614 3.56856 23.3951L6.36382 26.1903C6.98702 26.8136 7.94469 27.1384 8.90249 26.8321C10.5837 26.2943 14.5844 24.6357 19.1249 20.0953C23.6654 15.5548 25.3239 11.5541 25.8617 9.87285C26.1681 8.91504 25.8432 7.95737 25.22 7.33417L22.4247 4.53891C21.6437 3.75786 20.3774 3.75786 19.5963 4.53891L16.7679 7.36734C15.9868 8.14839 15.9868 9.41472 16.7679 10.1958L16.7699 10.1978Z" fill="#4F4F4F"/>
</svg>
