<svg width="54" height="46" viewBox="0 0 54 46" fill="none" xmlns="http://www.w3.org/2000/svg">
<rect width="54" height="46" rx="5" fill="#00C6BF"/>
<path d="M30.5006 25.0006H29.7106L29.4306 24.7306C30.6306 23.3306 31.2506 21.4206 30.9106 19.3906C30.4406 16.6106 28.1206 14.3906 25.3206 14.0506C21.0906 13.5306 17.5306 17.0906 18.0506 21.3206C18.3906 24.1206 20.6106 26.4406 23.3906 26.9106C25.4206 27.2506 27.3306 26.6306 28.7306 25.4306L29.0006 25.7106V26.5006L33.2506 30.7506C33.6606 31.1606 34.3306 31.1606 34.7406 30.7506C35.1506 30.3406 35.1506 29.6706 34.7406 29.2606L30.5006 25.0006ZM24.5006 25.0006C22.0106 25.0006 20.0006 22.9906 20.0006 20.5006C20.0006 18.0106 22.0106 16.0006 24.5006 16.0006C26.9906 16.0006 29.0006 18.0106 29.0006 20.5006C29.0006 22.9906 26.9906 25.0006 24.5006 25.0006Z" fill="white"/>
</svg>
