<svg width="93" height="18" viewBox="0 0 93 18" fill="none" xmlns="http://www.w3.org/2000/svg">
<rect width="18" height="18" rx="3.6" fill="#25D366"/>
<path d="M11.2491 9.99009C11.1141 9.94509 10.5291 9.63009 10.3941 9.58509C10.2591 9.54009 10.2141 9.54009 10.1241 9.63009C10.0003 9.80393 9.86499 9.9693 9.71912 10.1251C9.62912 10.2151 9.58412 10.2151 9.44912 10.1701C9.07292 10.0435 8.73316 9.82725 8.45912 9.54009C8.18012 9.30221 7.95075 9.01168 7.78412 8.68509C7.69412 8.55009 7.78412 8.50509 7.82912 8.41509C7.89982 8.34932 7.96046 8.27351 8.00912 8.19009C8.05412 8.10009 8.09912 8.05509 8.14412 7.96509C8.18912 7.87509 8.14412 7.83009 8.14412 7.74009C8.14412 7.65009 7.87412 7.06509 7.73912 6.84009C7.60412 6.61509 7.55912 6.61509 7.46912 6.61509H7.24412C7.12621 6.62035 7.01424 6.66834 6.92912 6.75009C6.78118 6.87773 6.6639 7.03705 6.58599 7.21624C6.50809 7.39542 6.47156 7.58985 6.47912 7.78509C6.52035 8.24513 6.69209 8.68382 6.97412 9.04959C7.4853 9.85946 8.22199 10.5023 9.09362 10.8991C9.40862 11.0341 9.63362 11.0791 9.81362 11.1691C10.0607 11.2484 10.3239 11.2638 10.5786 11.2141C10.922 11.1224 11.2237 10.916 11.4336 10.6291C11.4905 10.4392 11.5208 10.2423 11.5236 10.0441C11.4317 10.0449 11.3403 10.0297 11.2536 9.99909L11.2491 9.99009ZM8.99912 13.0501C8.25156 13.0591 7.51673 12.8563 6.87962 12.4651L6.74462 12.3751L5.16512 12.7801L5.57462 11.2501L5.48462 11.1151C5.07326 10.4515 4.85509 9.68634 4.85462 8.90559C4.85373 8.08462 5.09642 7.28183 5.55197 6.59884C6.00753 5.91585 6.65547 5.38337 7.41378 5.06878C8.1721 4.7542 9.0067 4.67165 9.81194 4.8316C10.6172 4.99155 11.3569 5.38679 11.9374 5.96731C12.5179 6.54783 12.9132 7.28752 13.0731 8.09277C13.2331 8.89802 13.1505 9.73261 12.8359 10.4909C12.5213 11.2492 11.9889 11.8972 11.3059 12.3527C10.6229 12.8083 9.82009 13.051 8.99912 13.0501ZM12.5136 5.43609C11.5687 4.5253 10.3114 4.01015 8.99912 3.99609C7.6863 3.99609 6.42724 4.51761 5.49894 5.44591C4.57063 6.37422 4.04912 7.63327 4.04912 8.94609C4.0489 9.81801 4.28196 10.6741 4.72412 11.4256L3.99512 14.0041L6.65462 13.3291C7.38695 13.7279 8.21038 13.9295 9.04412 13.9141C9.69416 13.9141 10.3378 13.7861 10.9384 13.5373C11.539 13.2885 12.0846 12.9239 12.5443 12.4643C13.0039 12.0046 13.3686 11.4589 13.6173 10.8584C13.8661 10.2578 13.9941 9.61414 13.9941 8.96409C13.9622 7.64588 13.4297 6.38926 12.5046 5.44959" fill="#FBFBFD"/>
<path d="M30.382 14.098C30.214 14.098 30.0787 14.056 29.976 13.972C29.8733 13.8787 29.7893 13.7433 29.724 13.566L26.63 4.732C26.5647 4.536 26.5787 4.37267 26.672 4.242C26.7747 4.102 26.9333 4.032 27.148 4.032C27.3067 4.032 27.4327 4.074 27.526 4.158C27.6193 4.23267 27.6987 4.354 27.764 4.522L30.662 13.02H30.172L33.126 4.564C33.1913 4.38667 33.2707 4.256 33.364 4.172C33.4573 4.07867 33.5833 4.032 33.742 4.032C33.8913 4.032 34.008 4.07867 34.092 4.172C34.1853 4.256 34.2647 4.38667 34.33 4.564L37.242 13.02H36.808L39.734 4.522C39.7807 4.36333 39.8507 4.242 39.944 4.158C40.0467 4.074 40.1773 4.032 40.336 4.032C40.532 4.032 40.6767 4.09733 40.77 4.228C40.8633 4.35867 40.8727 4.52667 40.798 4.732L37.69 13.566C37.6247 13.7433 37.5407 13.8787 37.438 13.972C37.3447 14.056 37.2093 14.098 37.032 14.098C36.864 14.098 36.7287 14.056 36.626 13.972C36.5327 13.8787 36.4487 13.7433 36.374 13.566L33.56 5.46H33.868L31.026 13.566C30.9607 13.7433 30.8813 13.8787 30.788 13.972C30.6947 14.056 30.5593 14.098 30.382 14.098ZM43.3603 14.098C43.1737 14.098 43.0337 14.0467 42.9403 13.944C42.847 13.8413 42.8003 13.6967 42.8003 13.51V4.606C42.8003 4.41933 42.847 4.27933 42.9403 4.186C43.0337 4.08333 43.1737 4.032 43.3603 4.032C43.5377 4.032 43.6777 4.08333 43.7803 4.186C43.883 4.27933 43.9343 4.41933 43.9343 4.606V8.708H43.7523C43.9483 8.16667 44.2657 7.76067 44.7043 7.49C45.1523 7.21 45.6657 7.07 46.2443 7.07C46.7857 7.07 47.2337 7.168 47.5883 7.364C47.9523 7.56 48.223 7.85867 48.4003 8.26C48.5777 8.652 48.6663 9.15133 48.6663 9.758V13.51C48.6663 13.6967 48.615 13.8413 48.5123 13.944C48.419 14.0467 48.2837 14.098 48.1063 14.098C47.9197 14.098 47.775 14.0467 47.6723 13.944C47.579 13.8413 47.5323 13.6967 47.5323 13.51V9.828C47.5323 9.19333 47.4063 8.73133 47.1543 8.442C46.9117 8.14333 46.5197 7.994 45.9783 7.994C45.353 7.994 44.8537 8.19 44.4803 8.582C44.1163 8.96467 43.9343 9.478 43.9343 10.122V13.51C43.9343 13.902 43.743 14.098 43.3603 14.098ZM52.8994 14.126C52.4327 14.126 52.0127 14.0373 51.6394 13.86C51.2754 13.6733 50.986 13.4213 50.7714 13.104C50.5567 12.7867 50.4494 12.432 50.4494 12.04C50.4494 11.536 50.5754 11.1393 50.8274 10.85C51.0887 10.5607 51.5134 10.3553 52.1014 10.234C52.6987 10.1127 53.5107 10.052 54.5374 10.052H55.1674V10.794H54.5514C53.7954 10.794 53.198 10.8313 52.7594 10.906C52.33 10.9713 52.0267 11.088 51.8494 11.256C51.6814 11.424 51.5974 11.662 51.5974 11.97C51.5974 12.3527 51.728 12.6653 51.9894 12.908C52.26 13.1507 52.624 13.272 53.0814 13.272C53.4547 13.272 53.7814 13.1833 54.0614 13.006C54.3507 12.8287 54.5747 12.586 54.7334 12.278C54.9014 11.97 54.9854 11.6153 54.9854 11.214V9.618C54.9854 9.03933 54.8687 8.624 54.6354 8.372C54.402 8.11067 54.0194 7.98 53.4874 7.98C53.1607 7.98 52.834 8.022 52.5074 8.106C52.1807 8.19 51.8354 8.32533 51.4714 8.512C51.3407 8.57733 51.2287 8.60067 51.1354 8.582C51.042 8.554 50.9674 8.50267 50.9114 8.428C50.8554 8.35333 50.8227 8.26933 50.8134 8.176C50.804 8.07333 50.8227 7.97533 50.8694 7.882C50.9254 7.78867 51.0094 7.714 51.1214 7.658C51.532 7.45267 51.938 7.30333 52.3394 7.21C52.7407 7.11667 53.1234 7.07 53.4874 7.07C54.0754 7.07 54.5607 7.168 54.9434 7.364C55.326 7.55067 55.6107 7.84 55.7974 8.232C55.984 8.61467 56.0774 9.10933 56.0774 9.716V13.51C56.0774 13.6967 56.0307 13.8413 55.9374 13.944C55.8534 14.0467 55.7274 14.098 55.5594 14.098C55.382 14.098 55.2467 14.0467 55.1534 13.944C55.06 13.8413 55.0134 13.6967 55.0134 13.51V12.418H55.1394C55.0647 12.7727 54.92 13.076 54.7054 13.328C54.5 13.58 54.2434 13.776 53.9354 13.916C53.6274 14.056 53.282 14.126 52.8994 14.126ZM60.9112 14.126C60.3792 14.126 59.9312 14.0327 59.5672 13.846C59.2125 13.65 58.9465 13.37 58.7692 13.006C58.5919 12.6327 58.5032 12.18 58.5032 11.648V8.078H57.5652C57.4065 8.078 57.2852 8.04067 57.2012 7.966C57.1172 7.882 57.0752 7.77 57.0752 7.63C57.0752 7.49 57.1172 7.38267 57.2012 7.308C57.2852 7.23333 57.4065 7.196 57.5652 7.196H58.5032V5.586C58.5032 5.39933 58.5545 5.25933 58.6572 5.166C58.7599 5.06333 58.8999 5.012 59.0772 5.012C59.2545 5.012 59.3899 5.06333 59.4832 5.166C59.5859 5.25933 59.6372 5.39933 59.6372 5.586V7.196H61.4012C61.5599 7.196 61.6812 7.23333 61.7652 7.308C61.8492 7.38267 61.8912 7.49 61.8912 7.63C61.8912 7.77 61.8492 7.882 61.7652 7.966C61.6812 8.04067 61.5599 8.078 61.4012 8.078H59.6372V11.536C59.6372 12.068 59.7492 12.474 59.9732 12.754C60.1972 13.0247 60.5612 13.16 61.0652 13.16C61.2425 13.16 61.3919 13.1413 61.5132 13.104C61.6439 13.0667 61.7512 13.048 61.8352 13.048C61.9192 13.0387 61.9892 13.0667 62.0452 13.132C62.1012 13.1973 62.1292 13.3093 62.1292 13.468C62.1292 13.58 62.1059 13.6827 62.0592 13.776C62.0219 13.8693 61.9519 13.9347 61.8492 13.972C61.7372 14.0093 61.5879 14.042 61.4012 14.07C61.2239 14.1073 61.0605 14.126 60.9112 14.126ZM65.3717 14.126C64.9517 14.126 64.5271 14.0747 64.0977 13.972C63.6777 13.8693 63.2857 13.692 62.9217 13.44C62.8284 13.3747 62.7631 13.3 62.7257 13.216C62.6884 13.1227 62.6744 13.034 62.6837 12.95C62.7024 12.8567 62.7397 12.7773 62.7957 12.712C62.8611 12.6467 62.9357 12.6093 63.0197 12.6C63.1131 12.5813 63.2157 12.6 63.3277 12.656C63.6917 12.88 64.0417 13.0387 64.3777 13.132C64.7231 13.216 65.0637 13.258 65.3997 13.258C65.9317 13.258 66.3331 13.16 66.6037 12.964C66.8744 12.768 67.0097 12.502 67.0097 12.166C67.0097 11.9047 66.9211 11.6993 66.7437 11.55C66.5664 11.3913 66.2864 11.27 65.9037 11.186L64.6297 10.906C64.0417 10.7847 63.6031 10.5747 63.3137 10.276C63.0337 9.97733 62.8937 9.59 62.8937 9.114C62.8937 8.694 63.0011 8.33467 63.2157 8.036C63.4397 7.728 63.7524 7.49 64.1537 7.322C64.5551 7.154 65.0217 7.07 65.5537 7.07C65.9644 7.07 66.3517 7.126 66.7157 7.238C67.0891 7.34067 67.4251 7.50867 67.7237 7.742C67.8171 7.80733 67.8777 7.88667 67.9057 7.98C67.9431 8.064 67.9477 8.15267 67.9197 8.246C67.9011 8.33 67.8591 8.40467 67.7937 8.47C67.7284 8.526 67.6491 8.55867 67.5557 8.568C67.4624 8.57733 67.3644 8.54933 67.2617 8.484C66.9817 8.29733 66.6971 8.162 66.4077 8.078C66.1184 7.98467 65.8337 7.938 65.5537 7.938C65.0311 7.938 64.6344 8.04067 64.3637 8.246C64.0931 8.45133 63.9577 8.722 63.9577 9.058C63.9577 9.31933 64.0417 9.534 64.2097 9.702C64.3777 9.87 64.6391 9.99133 64.9937 10.066L66.2677 10.332C66.8744 10.4627 67.3271 10.6727 67.6257 10.962C67.9337 11.242 68.0877 11.6247 68.0877 12.11C68.0877 12.726 67.8404 13.216 67.3457 13.58C66.8511 13.944 66.1931 14.126 65.3717 14.126ZM71.958 14.126C71.4913 14.126 71.0713 14.0373 70.698 13.86C70.334 13.6733 70.0446 13.4213 69.83 13.104C69.6153 12.7867 69.508 12.432 69.508 12.04C69.508 11.536 69.634 11.1393 69.886 10.85C70.1473 10.5607 70.572 10.3553 71.16 10.234C71.7573 10.1127 72.5693 10.052 73.596 10.052H74.226V10.794H73.61C72.854 10.794 72.2566 10.8313 71.818 10.906C71.3886 10.9713 71.0853 11.088 70.908 11.256C70.74 11.424 70.656 11.662 70.656 11.97C70.656 12.3527 70.7866 12.6653 71.048 12.908C71.3186 13.1507 71.6826 13.272 72.14 13.272C72.5133 13.272 72.84 13.1833 73.12 13.006C73.4093 12.8287 73.6333 12.586 73.792 12.278C73.96 11.97 74.044 11.6153 74.044 11.214V9.618C74.044 9.03933 73.9273 8.624 73.694 8.372C73.4606 8.11067 73.078 7.98 72.546 7.98C72.2193 7.98 71.8926 8.022 71.566 8.106C71.2393 8.19 70.894 8.32533 70.53 8.512C70.3993 8.57733 70.2873 8.60067 70.194 8.582C70.1006 8.554 70.026 8.50267 69.97 8.428C69.914 8.35333 69.8813 8.26933 69.872 8.176C69.8626 8.07333 69.8813 7.97533 69.928 7.882C69.984 7.78867 70.068 7.714 70.18 7.658C70.5906 7.45267 70.9966 7.30333 71.398 7.21C71.7993 7.11667 72.182 7.07 72.546 7.07C73.134 7.07 73.6193 7.168 74.002 7.364C74.3846 7.55067 74.6693 7.84 74.856 8.232C75.0426 8.61467 75.136 9.10933 75.136 9.716V13.51C75.136 13.6967 75.0893 13.8413 74.996 13.944C74.912 14.0467 74.786 14.098 74.618 14.098C74.4406 14.098 74.3053 14.0467 74.212 13.944C74.1186 13.8413 74.072 13.6967 74.072 13.51V12.418H74.198C74.1233 12.7727 73.9786 13.076 73.764 13.328C73.5586 13.58 73.302 13.776 72.994 13.916C72.686 14.056 72.3406 14.126 71.958 14.126ZM77.7998 16.618C77.6131 16.618 77.4731 16.5667 77.3798 16.464C77.2864 16.3707 77.2398 16.2307 77.2398 16.044V7.672C77.2398 7.48533 77.2864 7.34533 77.3798 7.252C77.4731 7.14933 77.6084 7.098 77.7858 7.098C77.9724 7.098 78.1124 7.14933 78.2058 7.252C78.3084 7.34533 78.3598 7.48533 78.3598 7.672V9.002L78.2058 8.806C78.3551 8.274 78.6491 7.854 79.0878 7.546C79.5358 7.22867 80.0678 7.07 80.6838 7.07C81.2904 7.07 81.8178 7.21467 82.2658 7.504C82.7231 7.784 83.0731 8.19 83.3158 8.722C83.5678 9.24467 83.6938 9.87 83.6938 10.598C83.6938 11.3167 83.5678 11.942 83.3158 12.474C83.0731 12.9967 82.7278 13.4027 82.2798 13.692C81.8318 13.9813 81.2998 14.126 80.6838 14.126C80.0678 14.126 79.5404 13.972 79.1018 13.664C78.6631 13.3467 78.3644 12.9267 78.2058 12.404H78.3738V16.044C78.3738 16.2307 78.3224 16.3707 78.2198 16.464C78.1171 16.5667 77.9771 16.618 77.7998 16.618ZM80.4458 13.216C80.8751 13.216 81.2438 13.1133 81.5518 12.908C81.8691 12.7027 82.1118 12.404 82.2798 12.012C82.4571 11.62 82.5458 11.1487 82.5458 10.598C82.5458 9.74867 82.3544 9.1 81.9718 8.652C81.5984 8.204 81.0898 7.98 80.4458 7.98C80.0258 7.98 79.6571 8.08267 79.3398 8.288C79.0224 8.484 78.7751 8.778 78.5978 9.17C78.4298 9.55267 78.3458 10.0287 78.3458 10.598C78.3458 11.438 78.5371 12.0867 78.9198 12.544C79.3024 12.992 79.8111 13.216 80.4458 13.216ZM85.9619 16.618C85.7752 16.618 85.6352 16.5667 85.5419 16.464C85.4486 16.3707 85.4019 16.2307 85.4019 16.044V7.672C85.4019 7.48533 85.4486 7.34533 85.5419 7.252C85.6352 7.14933 85.7706 7.098 85.9479 7.098C86.1346 7.098 86.2746 7.14933 86.3679 7.252C86.4706 7.34533 86.5219 7.48533 86.5219 7.672V9.002L86.3679 8.806C86.5172 8.274 86.8112 7.854 87.2499 7.546C87.6979 7.22867 88.2299 7.07 88.8459 7.07C89.4526 7.07 89.9799 7.21467 90.4279 7.504C90.8852 7.784 91.2352 8.19 91.4779 8.722C91.7299 9.24467 91.8559 9.87 91.8559 10.598C91.8559 11.3167 91.7299 11.942 91.4779 12.474C91.2352 12.9967 90.8899 13.4027 90.4419 13.692C89.9939 13.9813 89.4619 14.126 88.8459 14.126C88.2299 14.126 87.7026 13.972 87.2639 13.664C86.8252 13.3467 86.5266 12.9267 86.3679 12.404H86.5359V16.044C86.5359 16.2307 86.4846 16.3707 86.3819 16.464C86.2792 16.5667 86.1392 16.618 85.9619 16.618ZM88.6079 13.216C89.0372 13.216 89.4059 13.1133 89.7139 12.908C90.0312 12.7027 90.2739 12.404 90.4419 12.012C90.6192 11.62 90.7079 11.1487 90.7079 10.598C90.7079 9.74867 90.5166 9.1 90.1339 8.652C89.7606 8.204 89.2519 7.98 88.6079 7.98C88.1879 7.98 87.8192 8.08267 87.5019 8.288C87.1846 8.484 86.9372 8.778 86.7599 9.17C86.5919 9.55267 86.5079 10.0287 86.5079 10.598C86.5079 11.438 86.6992 12.0867 87.0819 12.544C87.4646 12.992 87.9732 13.216 88.6079 13.216Z" fill="#4F4F4F"/>
</svg>
